<?xml version="1.0" encoding="utf-8"?>
<!-- Generator: Adobe Illustrator 14.0.0, SVG Export Plug-In . SVG Version: 6.00 Build 43363)  -->
<!DOCTYPE svg PUBLIC "-//W3C//DTD SVG 1.0//EN" "http://www.w3.org/TR/2001/REC-SVG-20010904/DTD/svg10.dtd">
<svg version="1.0" xmlns="http://www.w3.org/2000/svg" xmlns:xlink="http://www.w3.org/1999/xlink" x="0px" y="0px" width="512px"
	 height="512px" viewBox="0 0 512 512" enable-background="new 0 0 512 512" xml:space="preserve">
<g id="Calque_1" display="none">
	<circle display="inline" fill="none" stroke="#808080" stroke-width="0.9992" cx="256" cy="258.332" r="217.5"/>
	<circle display="inline" fill="none" stroke="#808080" stroke-width="0.5511" cx="256" cy="160.796" r="119.964"/>
	<circle display="inline" fill="none" stroke="#808080" stroke-width="0.5511" cx="281.965" cy="157.952" r="119.964"/>
	<circle display="inline" fill="none" stroke="#808080" stroke-width="0.5511" cx="256" cy="355.868" r="119.964"/>
	<circle display="inline" fill="none" stroke="#808080" stroke-width="0.5511" cx="281.965" cy="358.712" r="119.964"/>
</g>
<g id="Calque_1_-_copie">
	<linearGradient id="SVGID_1_" gradientUnits="userSpaceOnUse" x1="4.6367" y1="258.333" x2="507.3652" y2="258.333">
		<stop  offset="0" style="stop-color:#0093E7"/>
		<stop  offset="0.1327" style="stop-color:#008FE1"/>
		<stop  offset="0.3174" style="stop-color:#0082CF"/>
		<stop  offset="0.5325" style="stop-color:#006DB1"/>
		<stop  offset="0.7687" style="stop-color:#005188"/>
		<stop  offset="1" style="stop-color:#003059"/>
	</linearGradient>
	<circle fill="url(#SVGID_1_)" cx="256.001" cy="258.332" r="251.364"/>
	<g display="none">
		<path display="inline" fill="#2D2929" d="M361.377,68.035c18.388,16.213,31.996,38.186,37.708,63.952
			c11.104,50.091-10.869,99.802-51.386,126.345c40.517,26.543,62.491,76.253,51.386,126.345
			c-5.713,25.767-19.32,47.739-37.71,63.953C428.238,411.525,473.5,340.22,473.5,258.332
			C473.5,176.445,428.239,105.14,361.377,68.035z"/>
		<linearGradient id="SVGID_2_" gradientUnits="userSpaceOnUse" x1="359.9531" y1="258.5625" x2="473.5254" y2="258.5625">
			<stop  offset="0" style="stop-color:#FF9445"/>
			<stop  offset="0.1579" style="stop-color:#FB9143"/>
			<stop  offset="0.329" style="stop-color:#EE893C"/>
			<stop  offset="0.5062" style="stop-color:#D87A32"/>
			<stop  offset="0.6876" style="stop-color:#BA6623"/>
			<stop  offset="0.8704" style="stop-color:#934D10"/>
			<stop  offset="1" style="stop-color:#733800"/>
		</linearGradient>
		<path display="inline" fill="url(#SVGID_2_)" d="M471.512,228.986c-9.705-71.267-52.908-129.731-111.559-161.706
			c32.565,28.912,50.197,73.43,42.942,119.835c-4.37,27.957-17.108,52.304-35.275,71.25c18.167,18.945,30.905,43.688,35.275,71.645
			c7.255,46.404-10.377,90.922-42.942,119.834c58.65-31.974,101.854-90.438,111.559-161.705c1.343-9.862,2.002-20.12,2.014-29.806
			C473.514,248.647,472.854,238.849,471.512,228.986z"/>
	</g>
	<g display="none">
		<linearGradient id="SVGID_3_" gradientUnits="userSpaceOnUse" x1="170.7705" y1="267.3242" x2="473.5264" y2="267.3242">
			<stop  offset="0" style="stop-color:#FFFFFF"/>
			<stop  offset="1" style="stop-color:#000000"/>
		</linearGradient>
		<path fill="url(#SVGID_3_)" d="M170.771,458.432c110.242,46.964,237.759-4.099,285.075-114.261l0.001,0.001
			c0.005-0.012,0.01-0.023,0.015-0.035c0.005-0.013,0.01-0.023,0.016-0.035h-0.001c47.24-110.194-3.61-237.795-113.604-285.337
			c36.869,27.224,58.554,73.04,52.897,122.038c-6.24,54.054-28.763,89.142-77.429,104.064
			c22.716,45.554,12.804,86.053-22.073,127.818C264.051,450.545,215.904,466.396,170.771,458.432z"/>
		<linearGradient id="SVGID_4_" gradientUnits="userSpaceOnUse" x1="173.0942" y1="267.7949" x2="473.5557" y2="267.7949">
			<stop  offset="0" style="stop-color:#FFFFFF"/>
			<stop  offset="1" style="stop-color:#000000"/>
		</linearGradient>
		<path display="inline" fill="url(#SVGID_4_)" d="M404.706,216.007c-15.85,36.937-48.046,61.832-84.514,69.871
			c19.299,31.971,23.439,72.458,7.59,109.394c-25.718,59.935-94.47,88.175-154.688,64.122
			c109.729,45.28,235.823-5.854,282.783-115.292c46.96-109.436-2.856-236.058-111.277-284.386
			C403.522,86.787,430.425,156.073,404.706,216.007z"/>
	</g>
	<g display="none">
		<linearGradient id="SVGID_5_" gradientUnits="userSpaceOnUse" x1="38.5288" y1="176.5117" x2="466.4111" y2="176.5117">
			<stop  offset="0" style="stop-color:#FFFFFF"/>
			<stop  offset="1" style="stop-color:#000000"/>
		</linearGradient>
		<path fill="url(#SVGID_5_)" d="M466.411,203.274C436.083,87.347,317.659,17.751,201.579,47.751V47.75
			c-0.012,0.003-0.024,0.007-0.037,0.01c-0.013,0.004-0.025,0.007-0.038,0.009l0,0.001C85.447,77.85,15.655,196.158,45.374,312.243
			c-1.035-45.819,21.928-91.008,64.14-116.522c46.568-28.147,88.101-31.809,129.687-2.454
			c22.124-45.844,60.218-62.791,114.594-60.77C403.085,134.33,445.087,162.706,466.411,203.274z"/>
		<linearGradient id="SVGID_6_" gradientUnits="userSpaceOnUse" x1="38.4653" y1="175.2998" x2="465.75" y2="175.2998">
			<stop  offset="0" style="stop-color:#FFFFFF"/>
			<stop  offset="1" style="stop-color:#000000"/>
		</linearGradient>
		<path display="inline" fill="url(#SVGID_6_)" d="M131.519,166.632c38.912-10.071,78.304,0.156,106.98,24.076
			c13.473-34.829,42.958-62.882,81.869-72.952c63.139-16.342,127.549,20.748,145.382,83.091
			C434.404,86.356,316.794,17.931,201.505,47.769C86.217,77.607,16.567,194.498,44.701,309.82
			C30.049,246.653,68.38,182.973,131.519,166.632z"/>
	</g>
	<g display="none">
		<linearGradient id="SVGID_7_" gradientUnits="userSpaceOnUse" x1="38.4927" y1="300.71" x2="427.542" y2="300.71">
			<stop  offset="0" style="stop-color:#FFFFFF"/>
			<stop  offset="1" style="stop-color:#000000"/>
		</linearGradient>
		<path fill="url(#SVGID_7_)" d="M83.685,125.626C10.564,220.56,28.001,356.809,122.77,430.25l-0.001,0.001
			c0.01,0.007,0.021,0.015,0.03,0.022c0.011,0.008,0.021,0.016,0.03,0.024l0-0.001c94.817,73.375,231.095,56.164,304.713-38.384
			c-35.604,28.86-85.395,38.356-131.406,20.588c-50.76-19.603-79.074-50.207-81.311-101.061
			c-49.796,10.561-86.512-9.195-118.192-53.436C67.917,217.902,64.652,167.318,83.685,125.626z"/>
		<linearGradient id="SVGID_8_" gradientUnits="userSpaceOnUse" x1="38.4995" y1="301.7363" x2="426.0371" y2="301.7363">
			<stop  offset="0" style="stop-color:#FFFFFF"/>
			<stop  offset="1" style="stop-color:#000000"/>
		</linearGradient>
		<path display="inline" fill="url(#SVGID_8_)" d="M259.664,412.9c-31.779-24.609-47.8-62.021-46.433-99.34
			c-35.79,10.66-76.021,4.511-107.799-20.099C53.867,253.53,43.78,179.892,82.17,127.634
			c-71.362,94.859-53.498,229.749,40.658,302.664c94.155,72.914,229.224,56.459,303.208-36.37
			C385.049,444.175,311.229,452.833,259.664,412.9z"/>
	</g>
	<g>
		<path fill="#051826" d="M114.43,170.943v194.818H88.994V170.943H114.43z"/>
		<path fill="#051826" d="M155.186,335.122c11.273,7.226,27.459,12.718,44.802,12.718c25.725,0,40.756-13.585,40.756-33.24
			c0-17.921-10.406-28.616-36.709-38.443c-31.795-11.563-51.451-28.327-51.451-55.497c0-30.35,25.147-52.896,63.012-52.896
			c19.655,0,34.397,4.625,42.779,9.539l-6.937,20.522c-6.07-3.757-19.077-9.25-36.709-9.25c-26.593,0-36.709,15.897-36.709,29.194
			c0,18.21,11.851,27.17,38.732,37.576c32.952,12.718,49.427,28.615,49.427,57.231c0,30.061-21.968,56.364-67.926,56.364
			c-18.788,0-39.31-5.781-49.716-12.718L155.186,335.122z"/>
		<path fill="#051826" d="M332.372,304.482l-20.233,61.278h-26.014l66.48-194.818h30.061l66.481,194.818h-26.882l-20.812-61.278
			H332.372z M396.541,284.827l-19.366-56.075c-4.336-12.718-7.227-24.28-10.117-35.553h-0.578
			c-2.891,11.272-5.78,23.413-9.827,35.264l-19.077,56.364H396.541z"/>
	</g>
	<g>
		<path fill="#FFFFFF" d="M108.282,166.025v194.818H82.846V166.025H108.282z"/>
		<path fill="#FFFFFF" d="M149.038,330.204c11.273,7.226,27.459,12.718,44.802,12.718c25.725,0,40.756-13.585,40.756-33.24
			c0-17.921-10.406-28.616-36.709-38.443c-31.795-11.563-51.451-28.327-51.451-55.497c0-30.35,25.147-52.896,63.012-52.896
			c19.655,0,34.397,4.625,42.779,9.539l-6.937,20.522c-6.07-3.757-19.077-9.25-36.709-9.25c-26.593,0-36.709,15.897-36.709,29.194
			c0,18.21,11.851,27.17,38.732,37.576c32.952,12.718,49.427,28.615,49.427,57.231c0,30.061-21.968,56.364-67.926,56.364
			c-18.788,0-39.31-5.781-49.716-12.718L149.038,330.204z"/>
		<path fill="#FFFFFF" d="M326.225,299.564l-20.233,61.278h-26.014l66.48-194.818h30.061L443,360.843h-26.882l-20.812-61.278
			H326.225z M390.394,279.909l-19.366-56.075c-4.336-12.718-7.227-24.28-10.117-35.553h-0.578
			c-2.891,11.272-5.78,23.413-9.827,35.264l-19.077,56.364H390.394z"/>
	</g>
</g>
</svg>
